<?xml version="1.0" standalone="no"?><!DOCTYPE svg PUBLIC "-//W3C//DTD SVG 1.1//EN" "http://www.w3.org/Graphics/SVG/1.1/DTD/svg11.dtd"><svg class="icon" width="200px" height="200.00px" viewBox="0 0 1024 1024" version="1.1" xmlns="http://www.w3.org/2000/svg"><path fill="#2196f3" d="M851.2 192C825.6 96 742.4 25.6 633.6 25.6H224C102.4 19.2 0 121.6 0 243.2V640c0 102.4 76.8 192 172.8 211.2 25.6 102.4 108.8 172.8 217.6 172.8h409.6c121.6 0 224-96 224-217.6V403.2c0-102.4-76.8-192-172.8-211.2zM166.4 403.2v384C108.8 768 64 710.4 64 640V243.2c0-83.2 70.4-153.6 160-153.6h409.6c70.4 0 128 38.4 147.2 102.4H390.4c-121.6-6.4-224 89.6-224 211.2zM960 806.4c0 83.2-70.4 153.6-160 153.6H390.4c-89.6 0-160-70.4-160-153.6V403.2c0-83.2 70.4-153.6 160-153.6h409.6C889.6 249.6 960 320 960 403.2v403.2z" /></svg>